<?xml version="1.0" standalone="no"?>
<!DOCTYPE svg PUBLIC "-//W3C//DTD SVG 20010904//EN"
 "http://www.w3.org/TR/2001/REC-SVG-20010904/DTD/svg10.dtd">
<svg version="1.0" xmlns="http://www.w3.org/2000/svg"
 width="407.000000pt" height="132.000000pt" viewBox="0 0 407.000000 132.000000"
 preserveAspectRatio="xMidYMid meet">

<g transform="translate(0.000000,132.000000) scale(0.100000,-0.100000)"
fill="#000000" stroke="none">
<path d="M960 1241 c0 -15 6 -21 23 -21 131 0 267 -137 267 -268 0 -17 5 -23
18 -20 26 6 20 87 -12 153 -46 94 -140 159 -246 172 -46 5 -50 4 -50 -16z"/>
<path d="M962 1113 c2 -11 18 -20 45 -26 55 -11 99 -55 110 -110 11 -52 43
-66 43 -18 0 87 -81 171 -165 171 -29 0 -36 -3 -33 -17z"/>
<path d="M672 1053 c-27 -11 -56 -87 -57 -153 -1 -36 -7 -75 -13 -87 -7 -12
-12 -41 -12 -65 0 -39 -5 -49 -48 -91 l-48 -47 -29 30 -29 30 25 26 24 25 -35
65 c-18 35 -37 64 -40 64 -10 0 -250 -245 -250 -256 0 -12 82 -94 95 -94 5 0
28 18 50 40 l41 40 29 -30 c24 -25 26 -32 15 -45 -12 -14 -15 -13 -37 6 l-23
23 -30 -29 c-52 -50 -43 -75 58 -177 96 -96 118 -105 166 -67 30 23 33 45 11
69 -14 15 -14 18 0 30 13 11 20 9 45 -15 l30 -29 -40 -41 c-22 -22 -40 -45
-40 -50 0 -13 82 -95 95 -95 12 0 261 247 255 254 -14 12 -113 66 -122 66 -7
0 -22 -10 -35 -22 l-23 -22 -30 29 -30 29 47 48 c40 40 53 48 84 48 21 0 50 5
66 11 15 7 58 13 95 15 80 3 145 34 155 72 8 33 -23 94 -87 171 -50 60 -51 63
-34 82 9 10 25 19 34 19 40 0 52 52 18 74 -23 14 -52 -2 -56 -31 -2 -12 -12
-29 -22 -38 -18 -16 -22 -14 -80 34 -91 76 -146 101 -188 84z m104 -72 c33
-22 71 -52 87 -68 l27 -29 -29 -28 -28 -27 -47 52 c-41 45 -86 116 -86 134 0
12 21 3 76 -34z m251 -258 c14 -24 23 -46 20 -50 -9 -9 -96 45 -144 90 l-44
40 28 29 28 30 43 -48 c24 -26 54 -67 69 -91z m-369 33 c17 -38 77 -100 116
-121 46 -25 45 -35 -1 -35 -53 0 -143 90 -143 143 0 43 12 48 28 13z m-209
-191 c-13 -14 -18 -12 -44 14 -24 26 -26 33 -15 46 12 15 17 13 44 -14 27 -28
29 -32 15 -46z m-30 -179 c76 -77 92 -106 58 -106 -7 0 -48 36 -91 79 -54 55
-77 84 -73 95 4 9 10 16 14 16 5 0 46 -38 92 -84z m225 16 c24 -26 25 -30 11
-42 -13 -11 -20 -9 -45 15 -23 22 -27 32 -19 42 16 18 22 17 53 -15z"/>
<path d="M171 869 c-72 -79 -131 -145 -131 -148 0 -3 18 -26 40 -51 l39 -45
135 135 136 135 -33 54 c-18 30 -37 56 -43 58 -6 2 -70 -60 -143 -138z"/>
<path d="M1540 631 l0 -191 35 0 34 0 3 78 3 77 53 -73 54 -72 51 71 52 71 3
-76 3 -76 34 0 35 0 0 188 c-1 170 -2 185 -16 167 -8 -11 -47 -64 -86 -117
-38 -54 -73 -98 -76 -98 -4 0 -46 55 -94 122 l-88 121 0 -192z"/>
<path d="M2780 631 l0 -191 35 0 35 0 0 107 0 108 78 -75 c42 -42 94 -91 115
-110 l37 -34 0 187 0 187 -40 0 -39 0 -3 -97 -3 -98 -107 104 -108 104 0 -192z"/>
<path d="M3881 807 c-37 -18 -65 -63 -65 -102 0 -44 41 -89 98 -108 36 -12 41
-18 41 -43 0 -24 -5 -30 -28 -32 -18 -2 -29 2 -33 12 -4 10 -18 16 -40 16 -43
0 -46 -25 -8 -69 62 -74 194 -28 194 69 0 52 -28 80 -112 114 -37 15 -44 28
-32 60 8 20 53 21 60 1 7 -18 84 -21 84 -4 0 24 -36 70 -66 84 -39 18 -61 19
-93 2z"/>
<path d="M1940 625 l0 -185 110 0 110 0 0 40 0 40 -75 0 -75 0 0 35 0 35 60 0
60 0 0 40 0 40 -60 0 -60 0 0 35 0 35 75 0 75 0 0 35 0 35 -110 0 -110 0 0
-185z"/>
<path d="M2200 775 c0 -35 0 -35 45 -35 l45 0 0 -150 0 -150 35 0 35 0 0 150
0 150 45 0 c45 0 45 0 45 35 l0 35 -125 0 -125 0 0 -35z"/>
<path d="M2503 647 c-40 -89 -75 -170 -79 -179 -5 -15 0 -18 35 -18 35 0 41 3
47 25 6 24 10 25 73 25 63 0 69 -2 79 -25 9 -20 19 -25 51 -25 l39 0 -81 180
c-44 99 -83 180 -86 180 -3 0 -38 -73 -78 -163z m103 -74 c-2 -3 -15 -3 -29
-1 -25 3 -25 4 -11 38 l15 35 15 -34 c8 -19 12 -36 10 -38z"/>
<path d="M3120 625 l0 -185 110 0 110 0 0 40 0 40 -75 0 -75 0 0 35 0 35 55 0
55 0 0 40 0 40 -55 0 -55 0 0 35 0 35 75 0 75 0 0 35 0 35 -110 0 -110 0 0
-185z"/>
<path d="M3370 805 c0 -9 133 -350 139 -357 4 -4 20 31 36 77 16 47 32 85 35
85 3 0 19 -36 35 -80 16 -44 32 -80 35 -80 5 0 140 339 140 353 0 4 -17 7 -38
7 l-38 0 -29 -80 c-16 -44 -32 -80 -35 -80 -3 0 -18 34 -34 75 -16 41 -32 75
-35 75 -4 0 -19 -34 -35 -75 -16 -41 -32 -72 -36 -70 -4 3 -20 39 -35 80 l-28
75 -38 0 c-22 0 -39 -2 -39 -5z"/>
<path d="M787 232 c-70 -70 -127 -132 -127 -138 0 -7 21 -28 46 -49 l45 -37
27 24 c174 157 262 243 259 252 -3 10 -105 76 -117 76 -3 0 -63 -57 -133 -128z"/>
</g>
</svg>
