<?xml version="1.0" standalone="no"?>
<!DOCTYPE svg PUBLIC "-//W3C//DTD SVG 20010904//EN"
 "http://www.w3.org/TR/2001/REC-SVG-20010904/DTD/svg10.dtd">
<svg version="1.0" xmlns="http://www.w3.org/2000/svg"
 width="512.000000pt" height="512.000000pt" viewBox="0 0 512.000000 512.000000"
 preserveAspectRatio="xMidYMid meet">

<g transform="translate(0.000000,512.000000) scale(0.100000,-0.100000)"
fill="#000000" stroke="none">
<path d="M1385 4679 c-78 -12 -117 -25 -195 -65 -169 -88 -286 -250 -321 -444
-21 -111 -21 -3116 0 -3205 20 -89 58 -159 118 -216 111 -105 260 -143 400
-101 93 29 164 75 697 456 253 180 464 330 471 332 6 3 235 -155 508 -350 274
-196 525 -371 560 -390 138 -76 268 -86 393 -27 80 38 163 115 196 183 55 113
53 51 53 1713 0 1438 -1 1545 -18 1622 -22 104 -46 161 -102 239 -81 113 -204
200 -341 241 -55 16 -144 18 -1209 19 -632 1 -1177 -2 -1210 -7z m2233 -419
c109 -10 153 -34 193 -103 l24 -42 3 -1522 c1 -838 -1 -1523 -5 -1523 -12 0
-47 24 -628 439 -296 211 -555 390 -575 397 -45 17 -95 17 -140 0 -20 -7 -279
-186 -575 -397 -581 -415 -616 -439 -628 -439 -4 0 -6 685 -5 1523 l3 1522 24
42 c38 66 86 94 178 103 113 11 2021 11 2131 0z"/>
</g>
</svg>
