<?xml version="1.0" standalone="no"?>
<!DOCTYPE svg PUBLIC "-//W3C//DTD SVG 20010904//EN"
 "http://www.w3.org/TR/2001/REC-SVG-20010904/DTD/svg10.dtd">
<svg version="1.0" xmlns="http://www.w3.org/2000/svg"
 width="100.000000pt" height="100.000000pt" viewBox="0 0 100.000000 100.000000"
 preserveAspectRatio="xMidYMid meet">

<g transform="translate(0.000000,100.000000) scale(0.100000,-0.100000)"
fill="#000000" stroke="none">
<path d="M218 904 c-56 -30 -58 -41 -58 -421 0 -389 1 -393 64 -393 27 0 52
17 152 105 65 58 122 105 125 105 3 0 59 -47 125 -105 96 -85 125 -105 150
-105 64 0 64 -1 64 388 0 203 -4 361 -10 376 -5 14 -24 35 -42 46 -31 19 -50
20 -288 20 -206 -1 -260 -4 -282 -16z"/>
</g>
</svg>
