<?xml version="1.0" standalone="no"?>
<!DOCTYPE svg PUBLIC "-//W3C//DTD SVG 20010904//EN"
 "http://www.w3.org/TR/2001/REC-SVG-20010904/DTD/svg10.dtd">
<svg version="1.0" xmlns="http://www.w3.org/2000/svg"
 width="512.000000pt" height="512.000000pt" viewBox="0 0 512.000000 512.000000"
 preserveAspectRatio="xMidYMid meet">

<g transform="translate(0.000000,512.000000) scale(0.100000,-0.100000)"
fill="#000000" stroke="none">
<path d="M2015 4624 c-600 -81 -1106 -449 -1367 -994 -134 -280 -193 -628
-158 -935 70 -606 425 -1116 968 -1389 487 -245 1074 -246 1561 -3 109 55 247
142 311 196 l35 30 410 -409 c350 -349 416 -410 450 -419 118 -31 225 76 194
194 -9 34 -70 100 -420 451 -352 352 -408 412 -395 423 32 26 160 227 212 331
244 488 243 1075 -2 1563 -91 181 -170 292 -318 446 -384 396 -937 589 -1481
515z m493 -328 c292 -59 539 -192 747 -401 208 -207 332 -437 397 -733 31
-140 31 -424 0 -564 -65 -296 -189 -526 -397 -733 -209 -210 -459 -343 -752
-402 -132 -26 -415 -24 -545 5 -295 64 -527 190 -733 397 -210 209 -343 459
-402 752 -24 122 -24 404 0 526 59 293 192 543 402 752 229 230 511 370 830
414 94 13 362 5 453 -13z"/>
</g>
</svg>
