<?xml version="1.0" standalone="no"?>
<!DOCTYPE svg PUBLIC "-//W3C//DTD SVG 20010904//EN"
 "http://www.w3.org/TR/2001/REC-SVG-20010904/DTD/svg10.dtd">
<svg version="1.0" xmlns="http://www.w3.org/2000/svg"
 width="512.000000pt" height="512.000000pt" viewBox="0 0 512.000000 512.000000"
 preserveAspectRatio="xMidYMid meet">

<g transform="translate(0.000000,512.000000) scale(0.100000,-0.100000)"
fill="#000000" stroke="none">
<path d="M2885 4946 c-37 -16 -70 -52 -84 -89 -7 -18 -11 -172 -11 -438 l0
-409 -69 0 c-253 0 -593 -88 -871 -226 -1053 -522 -1756 -1832 -1689 -3150 11
-223 32 -370 56 -402 51 -69 130 -89 201 -53 23 12 48 31 56 44 8 12 41 103
74 202 164 498 383 866 712 1196 406 406 873 624 1408 655 l122 7 0 -412 c0
-390 1 -414 20 -450 39 -77 149 -110 218 -65 29 18 1713 1518 1841 1639 94 89
111 145 69 223 -16 28 -283 273 -898 823 -1006 899 -1004 897 -1037 910 -34
13 -82 11 -118 -5z m959 -1161 l717 -640 -48 -42 c-26 -23 -352 -313 -723
-645 l-675 -604 -5 310 c-5 298 -6 313 -27 346 -36 59 -70 72 -212 81 -279 20
-613 -30 -908 -136 -136 -49 -358 -161 -487 -245 -364 -238 -685 -580 -923
-985 -29 -49 -53 -85 -53 -78 0 36 35 256 60 375 64 304 151 548 294 824 266
514 659 914 1121 1139 282 138 558 205 846 205 74 0 150 4 168 10 46 13 99 65
111 110 5 19 10 167 10 328 0 162 4 292 8 290 5 -1 331 -291 726 -643z"/>
</g>
</svg>
